<svg xmlns="http://www.w3.org/2000/svg" viewBox="0 0 935.03 445.12" width="935.03" height="445.12" role="img" aria-label="sheer.">
<path fill="#0F0F0F" d="M184.38 317.12Q169.25 317.12 157.44 312.75Q145.62 308.38 138.06 299.81Q130.5 291.25 128 278.88L153.88 273.5Q156.75 284.38 164.62 289.62Q172.5 294.88 184.62 294.88Q197.88 294.88 205.75 289.31Q213.62 283.75 213.62 276Q213.62 269.25 208.81 264.88Q204 260.5 194 258.38L170.5 253Q151 248.62 141.5 239Q132 229.38 132 214.38Q132 201.88 139 192.5Q146 183.12 158.12 177.94Q170.25 172.75 186.12 172.75Q201.25 172.75 212 177.12Q222.75 181.5 229.44 189.38Q236.12 197.25 239 207.62L214.38 213Q211.75 205.62 205.25 200.06Q198.75 194.5 186.38 194.5Q175 194.5 167.38 199.62Q159.75 204.75 159.75 212.62Q159.75 219.62 164.81 223.94Q169.88 228.25 181.38 230.88L203.88 235.88Q223.25 240.25 232.62 249.62Q242 259 242 273.62Q242 286.38 234.69 296.19Q227.38 306 214.44 311.56Q201.5 317.12 184.38 317.12ZM288.11 231.5L288.11 314.25L260.61 314.25L260.61 128L287.86 128L287.86 208.75L284.23 208.75Q290.36 190 301.98 181.38Q313.61 172.75 330.11 172.75Q344.36 172.75 355.04 178.75Q365.73 184.75 371.67 196.44Q377.61 208.12 377.61 225.5L377.61 314.25L350.11 314.25L350.11 228.88Q350.11 213.75 342.23 205.25Q334.36 196.75 320.61 196.75Q311.36 196.75 303.98 200.81Q296.61 204.88 292.36 212.62Q288.11 220.38 288.11 231.5ZM463.34 317.12Q442.71 317.12 427.71 308.25Q412.71 299.38 404.65 283.25Q396.59 267.12 396.59 245.38Q396.59 223.88 404.52 207.5Q412.46 191.12 426.96 181.94Q441.46 172.75 460.96 172.75Q472.96 172.75 484.09 176.69Q495.21 180.62 504.09 189Q512.96 197.38 518.15 210.69Q523.34 224 523.34 243L523.34 252.75L411.96 252.75L411.96 232.25L509.21 232.25L496.34 239Q496.34 226.12 492.34 216.31Q488.34 206.5 480.52 201Q472.71 195.5 460.96 195.5Q449.34 195.5 441.09 201.12Q432.84 206.75 428.52 215.94Q424.21 225.12 424.21 236L424.21 250Q424.21 264.38 429.15 274.31Q434.09 284.25 442.96 289.31Q451.84 294.38 463.59 294.38Q471.34 294.38 477.59 292.19Q483.84 290 488.4 285.56Q492.96 281.12 495.34 274.62L521.21 280.75Q517.84 291.5 509.9 299.75Q501.96 308 490.15 312.56Q478.34 317.12 463.34 317.12ZM602.19 317.12Q581.57 317.12 566.57 308.25Q551.57 299.38 543.5 283.25Q535.44 267.12 535.44 245.38Q535.44 223.88 543.38 207.5Q551.32 191.12 565.82 181.94Q580.32 172.75 599.82 172.75Q611.82 172.75 622.94 176.69Q634.07 180.62 642.94 189Q651.82 197.38 657 210.69Q662.19 224 662.19 243L662.19 252.75L550.82 252.75L550.82 232.25L648.07 232.25L635.19 239Q635.19 226.12 631.19 216.31Q627.19 206.5 619.38 201Q611.57 195.5 599.82 195.5Q588.19 195.5 579.94 201.12Q571.69 206.75 567.38 215.94Q563.07 225.12 563.07 236L563.07 250Q563.07 264.38 568 274.31Q572.94 284.25 581.82 289.31Q590.69 294.38 602.44 294.38Q610.19 294.38 616.44 292.19Q622.69 290 627.25 285.56Q631.82 281.12 634.19 274.62L660.07 280.75Q656.69 291.5 648.75 299.75Q640.82 308 629 312.56Q617.19 317.12 602.19 317.12ZM680.8 314.25L680.8 174.5L707.42 174.5L707.42 197L708.92 197Q712.8 185.5 722.42 179Q732.05 172.5 744.3 172.5Q746.92 172.5 750.3 172.69Q753.67 172.88 755.92 173.25L755.92 199.5Q754.42 199 750.17 198.5Q745.92 198 741.55 198Q732.05 198 724.42 202Q716.8 206 712.55 213.06Q708.3 220.12 708.3 229.38L708.3 314.25ZM788.65 316.12Q780.9 316.12 775.53 310.75Q770.15 305.38 770.15 297.75Q770.15 290 775.53 284.69Q780.9 279.38 788.65 279.38Q796.28 279.38 801.65 284.69Q807.03 290 807.03 297.75Q807.03 305.38 801.65 310.75Q796.28 316.12 788.65 316.12Z"/>
</svg>
